<svg width="802" height="1051" viewBox="0 0 802 1051" fill="none" xmlns="http://www.w3.org/2000/svg">
<path d="M158.668 3.91309C142.668 9.24643 135.468 13.6464 123.868 25.2464C112.668 36.3131 106.401 47.5131 101.201 65.5131C98.4009 75.1131 98.4009 76.5798 98.6676 183.646C98.8009 286.58 98.9343 292.713 101.468 302.313C106.934 323.78 118.534 340.58 136.134 352.713C154.001 365.113 167.068 367.913 206.268 367.913H234.401L238.934 373.513C241.334 376.713 246.268 382.846 250.001 387.246C253.734 391.646 260.268 400.046 264.668 405.913C269.068 411.78 272.934 416.846 273.334 417.246C273.734 417.646 276.134 420.58 278.668 423.913C281.201 427.246 285.201 432.046 287.468 434.58C289.868 437.113 292.801 440.58 294.268 442.313C297.601 446.58 306.001 449.246 311.201 447.78C323.334 444.313 328.934 432.713 334.668 399.246C336.801 387.113 340.134 372.846 341.468 370.446C342.668 368.046 347.601 367.913 473.734 367.913C623.868 367.78 628.001 367.646 648.668 357.78C678.401 343.78 692.934 323.113 698.534 286.846C700.534 274.046 700.534 94.3131 698.668 80.8464C696.401 65.1131 694.534 58.4464 689.868 48.5798C681.334 30.3131 668.401 16.8464 651.334 8.44642C633.068 -0.486914 647.068 -0.0869085 396.668 0.0464248H170.001L158.668 3.91309ZM628.534 32.0464C648.268 37.5131 660.934 50.3131 667.868 71.7798C669.868 78.1798 669.868 288.313 667.868 294.713C660.534 317.246 647.734 328.98 623.068 335.913C615.468 338.046 609.334 338.58 594.934 338.58C584.268 338.58 576.001 338.046 575.201 337.246C574.268 336.313 532.534 336.046 450.134 336.18L326.401 336.58L321.334 342.18C318.534 345.38 315.868 349.513 315.468 351.513C314.934 353.646 314.001 357.38 313.334 359.913C312.668 362.446 310.934 369.38 309.468 375.246C308.001 381.113 306.134 388.313 305.334 391.246C304.534 394.18 303.468 397.913 303.068 399.513C302.401 402.446 298.668 403.913 298.668 401.38C298.668 400.713 296.268 397.513 293.334 394.313C290.401 391.246 288.001 388.18 288.001 387.78C288.001 387.38 286.934 385.78 285.734 384.313C279.468 376.98 273.068 369.113 267.601 361.913C264.268 357.513 258.268 350.58 254.268 346.313L246.934 338.846L209.868 338.313C174.668 337.78 172.268 337.646 164.668 334.713C152.934 330.046 142.134 321.78 137.868 313.913C137.068 312.446 135.201 309.113 133.868 306.58C128.001 296.18 128.001 295.646 128.001 183.913C128.001 77.6464 128.001 76.7131 130.934 68.7131C136.401 53.2464 146.668 41.3798 160.401 34.7131L168.668 30.7131L396.001 30.5798C556.401 30.5798 624.934 30.9798 628.534 32.0464Z" fill="black"/>
<path d="M261.734 156.579C249.734 162.045 242.934 174.845 244.534 188.979C246.267 203.512 260.534 215.912 275.334 215.912C282.534 215.912 296.134 208.045 300.667 201.245C306.401 192.579 306.934 180.445 302.267 170.979C294.267 155.245 277.601 149.379 261.734 156.579Z" fill="black"/>
<path d="M388.401 156.046C376.668 161.779 370.268 171.912 370.268 184.579C370.268 199.246 380.134 211.646 394.268 214.712C408.668 217.912 423.868 209.379 429.334 195.112C432.668 186.046 432.668 183.112 429.334 174.179C422.934 157.112 403.734 148.579 388.401 156.046Z" fill="black"/>
<path d="M516 155.646C504.667 161.38 498.8 168.98 496.8 180.046C494.4 193.913 503.867 209.246 517.6 213.646C526.933 216.58 530.4 216.446 538.8 213.38C546.8 210.313 552.533 204.58 556.267 196.18C561.733 183.913 556.8 166.58 545.6 158.846C537.067 152.98 524.267 151.513 516 155.646Z" fill="black"/>
<path d="M172 459.513C161.6 460.313 149.467 463.379 139.067 468.046C135.867 469.513 133.067 470.579 132.667 470.579C132.133 470.579 128.133 473.113 123.6 476.179C112.533 483.646 100.933 494.846 94.8001 504.046C89.6001 511.913 82.8001 528.046 80.1334 538.979C78.2667 547.113 78.2667 576.713 80.1334 584.846C81.7334 591.379 81.8667 591.913 86.4001 603.379C93.8667 622.713 111.467 641.379 130 649.779C178.8 672.179 235.067 660.979 263.333 623.246C269.733 614.579 277.733 597.513 280 587.513C280.667 584.046 282 578.579 282.667 575.246C287.867 551.913 276.267 512.046 258.667 492.846C239.2 471.646 202.4 457.513 172 459.513ZM196.933 492.046C206.133 494.313 217.333 498.713 222 501.779C240.533 514.579 252.533 538.446 252.533 562.579C252.4 576.579 250.933 583.379 245.733 594.579C237.6 611.513 220 625.113 199.333 630.446C191.6 632.446 169.333 632.179 160.933 630.046C144 625.646 125.733 613.113 118.933 601.379C109.867 585.646 108.667 581.113 108.667 561.113C108.667 551.246 109.333 542.979 110.133 541.113C111.067 539.379 112.8 534.313 114.133 529.913C116.133 522.979 117.867 520.579 126.533 511.913C137.2 501.379 146.933 495.646 159.333 492.446C167.867 490.313 188.667 490.179 196.933 492.046Z" fill="black"/>
<path d="M605.334 461.514C602.8 462.18 598.267 463.38 595.334 464.314C592.4 465.114 589.467 466.047 588.667 466.58C588 466.98 584.934 468.18 582 469.114C570.934 472.98 554.4 485.914 544.934 498.447C531.067 516.58 524.667 536.314 524.667 560.58C524.667 580.58 526.934 590.314 536.4 610.58C549.6 638.58 572.8 653.514 613.734 659.914C648.267 665.514 687.867 650.18 708.8 623.247C734.667 590.18 736.134 540.847 712.534 503.78C705.2 492.314 699.867 486.314 690.8 479.38C672.4 465.514 653.867 459.78 627.067 460.047C617.734 460.18 607.867 460.714 605.334 461.514ZM642.534 492.047C653.6 494.047 661.2 497.38 671.334 504.98C680.934 512.18 689.6 523.514 694.267 534.847C697.467 542.447 697.734 544.714 697.467 559.514C697.2 578.447 695.2 587.247 688.8 598.18C668.134 633.38 617.334 642.98 582.134 618.047C576.667 614.18 576 613.647 569.467 605.247C561.2 594.98 557.6 585.78 555.734 571.247C551.6 538.314 566.534 510.047 595.334 496.58C607.734 490.714 625.2 489.114 642.534 492.047Z" fill="black"/>
<path d="M392.534 502.578C356 506.312 321.867 529.112 307.467 559.245C298.934 576.978 297.067 585.245 296.267 607.778C295.467 633.645 297.734 644.712 307.467 664.312C318.134 685.512 344.934 708.178 365.467 713.245C368 713.778 373.334 715.245 377.334 716.312C410.8 725.245 439.2 721.512 464.4 704.978C476.267 697.245 494 680.045 498.267 672.312C499.734 669.512 502.134 665.112 503.467 662.578C506.534 657.112 511.334 642.178 513.334 632.178C514.934 623.512 515.067 597.778 513.467 592.445C512.8 590.312 511.6 585.245 510.667 581.245C508.4 571.512 503.067 559.645 495.6 548.445C474.667 516.445 433.867 498.312 392.534 502.578ZM427.734 535.512C440.8 538.712 458.134 550.045 467.067 561.378C472.267 568.045 479.334 581.912 481.734 590.312C484 598.178 484.4 622.312 482.534 630.578C479.067 645.645 471.2 659.245 459.067 671.245C446.534 683.778 426 691.912 407.067 691.912C384.934 691.912 360.534 681.645 346.267 666.045C340.8 660.178 332 646.178 332 643.378C332 642.445 331.6 641.245 331.067 640.712C329.2 638.978 326.667 629.778 326.667 624.845C326.667 622.045 326.134 618.712 325.467 617.512C323.867 614.578 326 594.845 328.667 586.845C332.934 574.445 342.534 559.778 351.6 552.045C358.4 546.178 377.867 535.912 382.134 535.912C383.467 535.912 385.6 535.245 386.667 534.578C389.2 532.845 419.734 533.645 427.734 535.512Z" fill="black"/>
<path d="M140.667 684.047C108.8 685.647 85.3333 692.847 60.8 708.58C52.5333 713.913 35.8667 730.047 28.1333 740.18C17.6 754.313 7.46667 776.713 4.26667 793.247C0.4 813.113 0 821.113 0 876.313C0 932.713 0.133333 934.847 2.93333 944.047C6.26667 954.713 12.1333 961.113 20.9333 964.18C24.8 965.38 45.2 965.913 106 966.313C150 966.447 186.4 967.113 186.933 967.647C187.467 968.18 188.133 973.647 188.533 979.913C190.667 1012.58 192.4 1020.71 199.2 1029.65C205.2 1037.51 214.667 1044.31 224.533 1047.65L233.067 1050.58H404.133C542.933 1050.58 576.533 1050.18 582 1048.71C610.267 1041.11 621.067 1023.91 621.467 985.78C621.467 976.98 622.133 969.113 622.933 968.18C624 966.98 640.933 966.58 699.467 966.58C773.733 966.58 774.8 966.58 780.8 963.647C787.467 960.58 794.667 953.913 798.267 947.38C800.4 943.647 800.667 937.513 801.067 889.247C801.733 796.713 798.8 781.247 774.4 744.447C752.933 711.913 720.4 692.313 678 686.313C670 685.247 649.2 684.58 615.333 684.58C555.867 684.58 555.733 684.58 528.667 697.913C511.6 706.447 492.667 719.38 471.467 737.38L462.133 745.247H400.533H339.067L333.2 740.18C330 737.38 323.733 732.58 319.333 729.513C314.933 726.447 306 720.047 299.333 715.247C278.133 699.647 259.467 690.847 240.267 687.113C220.933 683.38 178 682.047 140.667 684.047ZM231.333 717.78C248.8 721.913 260.667 726.58 274.533 735.113C288.267 743.513 296 751.913 290 751.913C288.933 751.913 286.933 752.447 285.6 753.113C284.4 753.647 278.667 756.447 272.933 759.247C267.2 762.047 260.4 765.647 257.867 767.38C255.333 769.113 252.933 770.58 252.533 770.58C252.133 770.58 249.067 773.113 245.867 776.18C242.533 779.38 238.8 782.447 237.6 783.113C236.267 783.78 233.6 786.447 231.333 789.113C229.2 791.647 225.067 796.18 222.4 799.113C219.6 802.18 217.067 805.647 216.533 806.847C216.133 808.18 215.333 809.247 214.667 809.247C213.6 809.247 198.8 838.58 196.267 845.913C189.6 865.113 187.333 882.447 186.933 918.847L186.667 935.913H109.333H32V873.38C32 832.98 32.5333 810.447 33.3333 809.913C34.1333 809.513 34.6667 807.113 34.6667 804.847C34.6667 799.247 41.3333 780.58 46.8 770.847C61.3333 744.847 85.2 726.847 115.333 719.247C130.933 715.38 140.533 714.847 182 715.247C213.2 715.513 224 716.047 231.333 717.78ZM674 716.313C676.267 716.713 678.933 717.247 680 717.647C681.067 717.913 685.867 719.247 690.667 720.447C715.067 726.847 736.667 743.247 751.333 766.58C756.533 774.713 761.467 784.98 762.933 790.58C766.4 803.513 767.067 806.713 768.267 817.247C769.733 828.713 770.533 920.047 769.2 929.913L768.533 935.247H696H623.333L622.4 908.58C621.6 882.713 620.4 870.847 617.6 861.247C612.667 843.78 607.067 830.98 597.333 814.58C593.333 807.78 578.267 789.113 574.4 785.913C566.4 779.513 557.867 772.447 557.333 771.78C556.8 771.113 552.133 768.58 534 758.98C532.533 758.18 529.6 756.847 527.333 755.913C525.2 754.98 522.267 753.78 521.067 753.113C519.733 752.447 517.867 751.913 516.933 751.913C516 751.913 513.733 751.247 511.867 750.313L508.4 748.713L514 744.047C523.6 735.913 524.4 735.38 534.533 730.18C550.667 721.913 565.067 717.647 584 715.38C589.733 714.713 668.533 715.647 674 716.313ZM486 778.313C516.533 784.847 535.067 794.447 554 813.78C573.733 833.913 582.667 851.113 588.8 880.58C590.267 887.78 590.667 902.447 590.667 946.313C590.667 1006.18 590.667 1006.31 584.133 1013.65C578.533 1020.05 584.133 1019.91 405.333 1019.91C222.8 1019.91 234.133 1020.45 226.267 1012.58C224.533 1010.71 222.667 1007.38 222.133 1005.11C221.733 1002.71 221.333 974.313 221.333 941.647C221.333 877.647 221.733 872.313 228.8 853.647C237.467 830.713 253.067 810.713 272.8 797.38C281.733 791.38 300.933 782.047 307.333 780.713C309.6 780.18 314 779.247 317.2 778.58C320.4 777.78 323.467 776.98 323.867 776.58C325.2 775.113 479.2 776.847 486 778.313Z" fill="black"/>
</svg>
