<svg width="774" height="1019" viewBox="0 0 774 1019" fill="none" xmlns="http://www.w3.org/2000/svg">
<g clip-path="url(#clip0_232_7266)">
<path d="M445.83 0.338599C427.297 3.1386 406.497 18.6053 398.897 35.1386C395.563 42.2052 395.297 44.3386 395.297 58.8719C395.43 71.9386 395.963 76.2053 398.23 82.2053C403.697 95.9386 403.297 97.0053 385.43 114.339C376.763 122.605 363.43 135.139 355.83 142.072C348.097 149.005 337.297 158.872 331.83 164.205C326.23 169.405 320.097 174.872 318.097 176.205C314.497 178.605 314.23 178.472 307.43 175.139C303.563 173.272 292.897 168.072 283.563 163.672C265.297 155.005 266.23 155.805 264.497 143.539C261.297 119.939 247.297 100.872 227.83 93.6719C209.03 86.7386 196.363 86.7386 181.563 93.6719C167.697 100.339 157.963 111.672 151.697 128.872C149.03 136.072 148.497 140.072 148.497 152.872V168.205L154.097 179.805C157.297 186.205 159.83 192.205 159.83 193.139C159.83 195.405 149.03 206.605 133.03 220.872C121.83 230.872 89.1632 262.205 71.1632 280.205C63.5632 287.805 57.9632 298.339 59.0299 302.872C59.4299 304.472 61.0299 307.405 62.6299 309.405C65.2966 312.739 66.2299 313.139 71.8299 312.605C75.9632 312.205 80.0966 310.605 83.9632 307.805C90.6299 303.272 110.23 284.205 129.163 264.205C148.097 244.205 179.563 214.872 189.163 208.472C191.03 207.139 195.03 206.205 198.497 206.205C207.163 206.205 224.63 202.872 233.43 199.539C237.697 197.939 244.23 194.339 248.097 191.405C251.963 188.605 255.83 186.205 256.63 186.205C259.43 186.205 272.897 192.205 301.83 206.339C321.297 215.939 323.697 215.405 339.963 198.739C351.563 186.739 388.763 151.539 409.03 133.139C424.097 119.672 422.23 120.339 440.497 122.072C452.097 123.139 463.697 121.805 473.163 118.605C486.497 114.072 487.297 114.072 494.897 119.139C501.563 123.805 514.097 133.672 523.83 142.205C526.363 144.339 533.163 149.939 538.763 154.605C544.363 159.139 549.43 163.939 549.83 165.272C550.363 166.472 549.697 170.739 548.363 174.472C546.63 179.672 546.363 183.672 547.03 191.272C548.897 214.605 560.897 235.939 577.03 244.605C584.763 248.872 586.363 249.272 597.697 249.405C608.363 249.539 610.897 249.139 616.497 246.205C623.697 242.472 628.763 237.805 634.363 229.805C640.497 220.739 642.897 212.339 643.563 196.339C644.097 181.405 643.297 175.805 638.363 165.272C634.897 157.539 635.163 154.472 640.097 144.872L644.23 136.605L649.697 137.672C658.897 139.672 674.497 138.605 683.03 135.672C698.897 130.072 713.83 118.072 719.83 106.205C730.23 85.6719 727.163 59.8053 712.63 43.8053C701.163 31.2719 683.03 24.3386 661.83 24.2053C650.097 24.2053 647.563 24.6053 641.163 27.6719C630.763 32.6053 623.697 39.4053 618.63 48.8719C608.897 67.0053 607.697 87.0053 615.297 104.472C619.697 114.472 618.897 121.539 611.963 132.205C610.097 135.139 607.83 138.739 607.03 140.205C605.43 143.139 597.563 144.472 580.763 144.739C572.363 144.872 571.297 144.472 564.63 139.805C550.363 129.805 542.897 123.539 532.763 113.139C527.03 107.272 520.363 101.139 517.83 99.4053C511.83 95.2719 511.563 94.3386 514.097 86.6053C518.23 73.5386 516.097 41.9386 510.23 29.1386C504.497 17.0053 493.563 7.67192 479.563 3.00526C473.563 0.871922 452.763 -0.728067 445.83 0.338599ZM473.83 35.6719C482.497 39.8053 486.497 47.8053 486.497 61.8053C486.497 73.9386 482.897 79.9386 472.363 85.0053C465.297 88.3386 462.63 88.8719 453.697 88.8719C440.497 88.7386 435.03 86.3386 430.763 78.6053C427.43 72.4719 425.697 61.1386 427.03 53.9386C428.097 48.4719 437.163 38.7386 444.497 35.4052C452.23 31.9386 466.23 32.0719 473.83 35.6719ZM680.097 57.8053C682.497 59.1386 685.563 61.5386 686.897 63.2719C688.23 64.8719 690.097 67.0053 690.897 67.9386C694.497 71.6719 697.163 83.9386 694.63 85.4053C694.097 85.8053 693.163 87.8053 692.763 89.8053C690.763 99.0053 677.43 107.405 664.897 107.405C660.63 107.405 657.163 106.872 657.163 106.205C657.163 105.405 656.363 104.872 655.297 104.872C651.963 104.872 645.43 95.8053 643.163 87.9386C641.297 81.6719 641.163 79.2719 642.497 74.8719C645.963 62.6053 650.763 56.7386 658.497 55.1386C664.363 53.9386 675.563 55.2719 680.097 57.8053ZM213.563 123.005C226.097 129.539 231.963 137.805 232.363 149.805C232.897 161.405 226.497 170.072 215.03 173.139C206.63 175.405 198.363 175.939 195.297 174.472C193.83 173.672 190.63 172.339 188.23 171.405C182.63 169.005 178.497 161.272 178.497 152.872C178.497 149.272 179.163 145.939 179.83 145.539C180.63 145.139 181.163 143.405 181.163 141.672C181.163 134.739 186.363 128.072 195.297 123.539C201.697 120.339 207.963 120.205 213.563 123.005ZM607.963 183.139C612.097 187.405 614.363 198.605 612.497 204.472C611.697 206.872 609.297 210.605 607.163 212.872C603.963 216.205 602.363 216.872 597.297 216.872C590.363 216.739 587.963 215.405 583.963 208.872C581.963 205.539 581.163 201.939 581.163 196.605C581.163 184.072 584.363 180.205 595.83 179.272C602.497 178.739 604.497 179.405 607.963 183.139Z" fill="black"/>
<path d="M310.496 248.339C308.63 248.605 302.63 249.539 297.163 250.339C286.363 251.939 269.963 256.072 266.23 258.205C264.896 259.005 263.296 259.539 262.496 259.539C261.03 259.539 252.096 263.405 241.163 268.872C216.763 281.005 185.963 301.805 173.563 314.339C154.896 333.539 144.23 348.472 130.496 375.139C125.83 384.072 121.163 391.805 120.096 392.205C119.03 392.605 106.096 393.272 91.2962 393.672C62.3629 394.605 57.8295 395.539 53.2962 402.072C51.8295 404.072 50.4962 407.405 50.2295 409.539L49.8295 413.539L35.8295 414.205C25.8295 414.739 20.3628 415.539 16.7628 417.405C9.29618 421.139 2.89618 429.272 1.16285 437.405C0.0961813 442.205 -0.170485 517.539 0.0961813 702.872L0.496181 961.539L3.56285 969.272C7.16285 977.939 13.2962 984.872 21.1628 988.872C26.2295 991.539 28.8962 991.539 145.43 991.539C210.896 991.539 276.496 992.205 291.163 992.872L317.83 994.205L324.496 998.472C356.496 1018.74 382.096 1023.81 408.763 1014.74C414.23 1012.87 431.163 1003.41 439.163 997.672C441.296 996.205 444.496 994.072 446.363 993.139C448.763 991.939 481.03 991.539 594.363 991.539C749.03 991.539 743.696 991.672 756.896 985.005C762.896 981.939 769.163 974.739 772.363 967.005C774.363 962.339 774.496 937.939 774.496 698.072V434.339L771.296 427.005C767.696 418.872 762.63 413.539 754.496 409.139C750.096 406.872 746.763 406.205 738.496 406.205H728.096L727.296 401.539C726.096 395.139 720.896 389.539 713.43 386.739C707.696 384.472 699.696 384.205 622.096 383.539L537.03 382.872L535.163 379.539C520.096 352.339 514.496 343.272 507.163 333.539C500.496 324.872 483.696 307.672 473.83 299.539C464.896 292.205 444.763 278.205 443.296 278.205C442.896 278.205 438.763 276.472 434.23 274.339C429.563 272.339 421.963 269.272 417.163 267.672C412.363 266.072 407.296 264.205 405.83 263.672C404.363 263.005 399.296 261.539 394.496 260.339C389.696 259.139 381.296 256.872 375.83 255.405C355.296 249.939 321.696 246.339 310.496 248.339ZM349.83 282.072C350.63 282.739 353.563 283.539 356.496 283.939C365.43 285.272 371.03 286.339 373.83 287.539C375.296 288.072 379.163 289.272 382.496 290.205C385.83 291.139 390.896 292.872 393.83 294.205C396.763 295.539 401.296 297.405 403.83 298.339C406.363 299.272 408.763 300.339 409.163 300.872C409.563 301.272 412.496 302.739 415.83 304.205C422.096 307.005 442.763 320.339 449.83 326.205C458.763 333.672 476.096 352.205 481.163 359.672C484.23 363.939 487.163 367.539 487.83 367.539C488.63 367.539 489.163 368.205 489.163 369.005C489.163 369.805 491.03 373.005 493.163 376.205C495.43 379.405 497.163 382.739 497.163 383.672C497.163 384.605 497.963 386.339 499.03 387.405C501.696 390.472 512.896 419.272 514.496 427.005C515.163 430.605 516.63 436.872 517.696 440.872C521.963 457.139 521.43 502.605 516.896 516.872C515.83 520.205 514.096 526.205 513.163 530.205C512.23 534.205 510.096 540.472 508.496 544.205C506.896 547.805 504.763 553.272 503.83 556.205C502.23 561.139 499.563 566.739 491.83 580.205C489.163 584.872 487.03 587.805 478.496 598.739C476.096 601.805 464.363 613.405 458.496 618.739C454.763 621.939 453.696 622.339 451.03 621.005C449.03 620.205 447.83 620.072 447.83 620.872C447.83 621.672 448.763 622.205 449.83 622.205C450.896 622.205 451.83 622.605 451.83 623.139C451.83 624.339 443.03 630.205 441.296 630.205C440.63 630.205 439.83 630.605 439.563 631.139C438.63 633.272 421.963 640.872 418.363 640.872C416.23 640.872 414.496 641.405 414.496 642.205C414.496 642.872 413.296 643.539 411.83 643.539C410.363 643.539 407.963 644.072 406.496 644.872C405.03 645.539 402.63 646.739 401.163 647.539C399.696 648.339 397.296 648.872 395.963 648.872C394.496 648.872 393.03 649.405 392.63 650.072C392.23 650.739 390.23 651.539 388.23 651.805C386.096 652.205 379.696 653.672 373.83 655.005C365.43 656.872 357.296 657.405 335.163 657.405C307.43 657.539 304.096 657.139 283.163 651.939C278.763 650.872 273.563 649.672 271.43 649.272C269.43 648.872 267.43 648.072 267.03 647.405C266.63 646.739 265.163 646.205 263.83 646.205C261.563 646.205 240.096 636.072 238.496 634.339C238.096 633.939 236.23 632.739 234.363 631.672C225.696 627.272 204.63 610.072 191.83 597.139C176.896 581.939 173.03 577.272 167.963 568.472C166.23 565.405 163.696 561.272 162.363 559.272C156.096 550.605 145.296 522.205 145.163 514.605C145.163 512.339 144.63 510.072 143.963 509.672C142.496 508.739 140.763 491.272 140.763 477.539C140.896 457.939 144.363 425.539 146.63 424.072C147.296 423.672 147.83 422.072 147.83 420.605C147.83 416.872 150.763 408.872 152.096 408.872C152.63 408.872 153.163 407.672 153.163 406.205C153.163 404.739 153.83 403.539 154.496 403.539C155.296 403.539 155.83 402.739 155.83 401.805C155.696 398.472 170.896 370.472 178.096 360.872C189.83 344.872 203.696 330.339 215.163 321.939C221.03 317.539 226.896 313.272 228.096 312.205C229.296 311.139 234.096 308.339 238.763 305.939C243.43 303.539 247.43 301.139 247.563 300.472C247.83 299.939 248.63 299.539 249.296 299.539C250.096 299.539 253.163 298.339 256.096 296.872C259.163 295.405 262.496 294.205 263.43 294.205C264.363 294.205 265.163 293.539 265.163 292.872C265.163 292.072 266.63 291.539 268.496 291.539C270.363 291.539 271.83 290.872 271.83 290.205C271.83 288.605 278.85 288.277 278.416 288.072C278.262 287.986 278.423 288.428 279 288C278.923 287.928 279.206 287.55 279.577 287.807C279.794 287.961 279.191 287.5 279.5 287.5C279.84 287.5 280 287.5 279.83 287.539C280 287 281.563 286.205 283.696 286.205C285.963 286.205 288.096 285.539 288.496 284.872C288.896 284.072 292.496 283.539 296.496 283.539C300.496 283.539 304.096 282.872 304.496 282.205C305.563 280.472 348.096 280.339 349.83 282.072ZM695.83 656.205V898.205L569.563 898.605C448.096 899.139 431.83 899.672 420.23 903.272C413.03 905.539 404.763 910.472 398.896 916.072L393.163 921.405V802.605V683.805L396.896 682.472C398.896 681.805 403.163 680.339 406.496 679.405C409.83 678.472 413.163 677.139 414.096 676.472C415.163 675.805 416.363 676.205 417.563 677.805C418.63 679.139 422.763 683.939 426.763 688.472C430.63 693.005 439.83 703.805 447.163 712.339C454.496 721.005 465.296 733.139 471.163 739.405C477.03 745.805 485.163 755.672 489.163 761.405C493.163 767.139 497.563 773.139 499.03 774.739C500.363 776.205 503.03 779.672 505.03 782.205C506.896 784.739 508.763 787.139 509.296 787.539C509.963 788.205 534.496 816.605 537.963 820.872C559.03 846.472 571.696 859.005 582.229 864.605C586.629 867.005 591.43 868.872 592.896 868.872C594.496 868.872 596.096 869.405 596.496 870.205C597.696 872.072 619.163 871.939 625.03 869.939C640.23 865.139 657.83 852.072 663.296 841.672C669.163 830.739 670.363 827.539 672.496 819.272C674.496 811.005 674.496 809.539 672.496 799.005C671.43 792.739 669.163 784.339 667.696 780.472C663.696 769.939 648.63 750.739 632.23 735.139C628.363 731.405 625.163 727.672 625.163 726.739C625.163 725.805 624.63 724.872 624.096 724.605C623.563 724.339 621.03 721.539 618.496 718.205C615.963 714.872 605.963 704.205 596.23 694.605C586.496 684.872 578.496 676.472 578.496 675.939C578.496 675.539 577.563 673.939 576.229 672.605C574.496 670.739 574.496 670.205 575.963 670.205C577.029 670.072 590.763 670.205 606.763 670.205L635.563 670.339L638.363 666.339C639.963 664.205 641.163 661.539 641.163 660.472C641.163 659.272 641.83 657.939 642.496 657.539C644.763 656.205 644.096 645.405 641.563 643.405C638.096 640.472 623.563 639.405 579.83 638.739L539.163 638.205L526.23 624.605C519.03 617.139 513.163 610.205 513.163 609.272C513.163 606.339 519.696 597.405 522.896 595.805C528.63 593.005 599.296 591.005 618.763 593.005C633.43 594.605 634.63 594.472 637.163 592.205C646.63 583.672 645.563 567.405 635.43 563.405C632.363 562.205 618.096 561.539 584.096 561.139C540.763 560.739 537.03 560.472 537.563 558.472C537.963 557.272 539.963 551.939 541.963 546.872C545.296 538.072 546.23 534.872 549.03 521.672C549.696 518.872 550.896 516.072 551.696 515.539C555.83 513.005 623.163 511.939 628.363 514.339C631.296 515.672 632.363 515.405 636.096 512.605C646.363 504.605 646.63 504.339 644.896 499.405C642.363 492.472 637.43 486.339 632.496 484.339C629.163 482.872 619.696 482.339 592.363 482.205C572.763 482.205 556.23 481.805 555.563 481.405C555.03 481.005 554.496 474.605 554.496 467.272C554.496 459.939 553.83 449.939 553.163 445.005C550.23 426.605 548.896 420.205 547.563 418.605C546.896 417.672 546.63 416.339 547.163 415.539C547.696 414.605 571.963 414.205 621.963 414.205H695.83V656.205ZM109.43 424.205C110.896 424.872 111.03 427.005 109.963 435.939C107.963 453.272 109.43 510.872 111.963 513.405C112.63 514.205 113.163 517.272 113.163 520.339C113.163 523.272 113.696 527.539 114.363 529.672C120.096 548.872 122.896 555.805 130.496 570.872C152.896 614.739 181.963 643.539 230.496 669.805C259.963 685.805 306.896 694.605 346.896 691.805C354.096 691.272 360.63 691.139 361.296 691.539C362.363 692.339 363.163 909.939 361.963 911.139C361.696 911.405 359.43 910.472 357.03 909.005C354.496 907.539 348.363 905.005 343.296 903.405C334.096 900.605 332.63 900.605 207.963 900.472L81.8295 900.205L81.4295 663.539C81.2962 533.405 81.4295 426.072 81.8295 425.139C82.3629 423.539 105.43 422.739 109.43 424.205ZM738.63 438.205H745.163V698.072C745.163 938.072 745.03 958.072 742.896 959.672C741.163 961.272 715.163 961.672 590.63 962.205L440.496 962.872L433.963 966.072C430.23 967.939 424.23 972.205 420.363 975.672C412.363 982.872 410.763 983.939 401.696 987.139C394.096 989.672 371.43 990.339 366.363 988.072C355.83 983.405 349.296 979.672 344.63 975.805C337.696 969.939 331.43 966.872 322.763 965.005C317.83 963.939 274.096 963.539 175.43 963.539C98.2295 963.539 34.4962 963.005 33.6962 962.472C32.8962 961.939 31.6962 960.339 31.0295 958.872C30.3628 957.272 30.0962 850.872 30.4962 700.872L31.1628 445.539H40.4962H49.8295L50.6295 477.539C51.1629 495.139 51.5629 601.672 51.6962 714.205C51.6962 908.205 51.8295 919.005 54.0962 921.939C55.4295 923.672 59.0295 926.605 62.2295 928.339L67.9629 931.539H195.43C281.163 931.539 324.63 931.939 328.363 933.005C343.696 936.872 349.296 940.072 362.23 951.672C369.963 958.739 376.363 960.605 387.296 959.005C394.63 958.072 397.43 956.472 406.63 947.939C410.763 944.072 417.43 939.539 421.296 937.805C425.296 936.072 430.363 933.805 432.496 932.739C435.83 931.139 460.896 930.739 576.096 930.205L715.83 929.539L720.763 924.472L725.83 919.539L726.096 679.805C726.363 548.072 726.763 439.405 727.163 438.339C727.563 437.405 728.763 437.005 729.963 437.405C731.163 437.805 735.03 438.205 738.63 438.205ZM491.83 640.872C491.83 641.539 491.563 642.205 491.296 642.205C490.896 642.205 490.23 641.539 489.83 640.872C489.43 640.072 489.696 639.539 490.363 639.539C491.163 639.539 491.83 640.072 491.83 640.872ZM501.83 650.205C502.23 650.872 501.963 651.539 501.296 651.539C500.496 651.539 499.83 650.872 499.83 650.205C499.83 649.405 500.096 648.872 500.363 648.872C500.763 648.872 501.43 649.405 501.83 650.205ZM464.763 679.805C464.363 680.872 463.963 680.472 463.963 679.005C463.83 677.539 464.23 676.739 464.63 677.272C465.03 677.672 465.163 678.872 464.763 679.805ZM549.163 692.339C549.163 692.605 548.23 692.872 547.163 692.872C546.096 692.872 545.163 692.339 545.163 691.539C545.163 690.872 546.096 690.605 547.163 691.005C548.23 691.539 549.163 692.072 549.163 692.339ZM480.763 695.005C480.363 695.405 479.163 695.539 478.23 695.139C477.163 694.739 477.563 694.339 479.03 694.339C480.496 694.205 481.296 694.605 480.763 695.005ZM506.496 725.539C505.563 726.605 504.096 727.539 503.296 727.539C502.496 727.539 503.03 726.605 504.363 725.539C507.696 723.005 508.63 723.005 506.496 725.539ZM509.83 731.539C510.23 732.205 509.963 732.872 509.296 732.872C508.496 732.872 507.83 732.205 507.83 731.539C507.83 730.739 508.096 730.205 508.363 730.205C508.763 730.205 509.43 730.739 509.83 731.539ZM639.43 813.139C639.03 814.072 638.763 813.405 638.763 811.539C638.763 809.672 639.03 809.005 639.43 809.805C639.696 810.739 639.696 812.339 639.43 813.139ZM635.83 823.539C635.83 824.205 635.296 824.872 634.496 824.872C633.83 824.872 633.163 824.205 633.163 823.539C633.163 822.739 633.83 822.205 634.496 822.205C635.296 822.205 635.83 822.739 635.83 823.539ZM630.496 829.539C630.496 830.605 629.963 831.539 629.163 831.539C628.496 831.539 628.23 830.605 628.63 829.539C629.163 828.472 629.696 827.539 629.963 827.539C630.229 827.539 630.496 828.472 630.496 829.539ZM600.763 836.339C600.363 836.739 599.163 836.872 598.23 836.472C597.163 836.072 597.563 835.672 599.03 835.672C600.496 835.539 601.296 835.939 600.763 836.339ZM615.163 838.205C615.696 839.005 613.563 839.539 609.563 839.405C604.763 839.405 603.83 839.005 605.83 838.205C609.563 836.605 614.23 836.605 615.163 838.205Z" fill="black"/>
<path d="M304.496 312.873C303.029 313.539 299.962 314.073 297.562 314.073C291.562 314.206 269.162 322.073 255.829 328.739C249.562 331.939 240.362 337.539 235.162 341.406C224.896 349.139 203.829 369.939 201.962 374.206C201.296 375.673 200.229 376.873 199.562 376.873C199.029 376.873 198.496 377.539 198.496 378.339C198.496 379.006 196.762 381.939 194.629 384.606C192.496 387.273 189.962 391.539 189.029 393.806C187.962 396.206 186.762 398.206 186.229 398.206C185.562 398.206 185.162 399.406 185.162 400.873C185.162 402.339 184.629 403.539 184.096 403.539C183.429 403.539 182.096 406.073 181.162 409.139C180.229 412.339 178.896 415.406 178.229 416.073C177.696 416.873 177.162 418.739 177.162 420.339C177.162 422.073 176.629 423.673 175.962 424.073C175.296 424.473 174.496 426.473 174.096 428.473C173.829 430.606 172.362 435.806 171.162 440.206C168.096 450.739 167.562 492.206 170.362 504.206C174.762 523.673 177.562 532.339 182.362 541.939C183.829 545.139 185.162 548.339 185.162 549.139C185.162 549.806 187.029 553.006 189.162 556.206C191.429 559.406 193.162 562.473 193.162 563.139C193.162 563.673 194.629 565.939 196.496 568.073C198.362 570.206 199.829 572.339 199.829 572.739C199.829 573.539 202.629 576.739 215.696 590.873C220.362 595.939 238.762 610.473 244.496 613.673C256.096 620.206 263.029 623.539 264.629 623.539C265.696 623.539 266.496 624.073 266.496 624.873C266.496 625.539 267.962 626.206 269.696 626.206C271.562 626.206 273.429 626.739 273.829 627.539C274.229 628.206 276.096 628.873 277.829 628.873C279.562 628.873 281.429 629.406 281.829 630.206C282.229 630.873 284.362 631.539 286.362 631.539C288.362 631.539 290.496 632.073 291.162 632.739C293.429 634.739 304.762 635.673 330.496 635.806C355.296 635.939 367.429 635.006 369.829 632.739C370.496 632.073 372.629 631.539 374.629 631.539C376.629 631.539 378.762 630.873 379.162 630.206C379.562 629.406 381.696 628.873 383.829 628.873C385.962 628.873 388.096 628.206 388.496 627.539C388.896 626.739 390.229 626.206 391.296 626.206C392.362 626.206 398.762 623.539 405.562 620.339C417.296 614.739 429.829 606.473 442.362 595.806C445.562 593.139 448.496 590.606 449.029 590.206C454.762 585.673 477.162 556.073 477.162 553.006C477.162 552.339 477.696 551.539 478.229 551.273C479.562 550.739 485.162 538.873 485.162 536.473C485.162 535.539 485.696 534.206 486.362 533.406C488.896 530.739 494.496 510.073 496.629 496.206C498.629 482.473 498.629 457.806 496.629 447.539C492.629 427.673 488.896 416.473 481.429 401.539C474.762 388.073 471.429 382.206 470.229 382.206C469.562 382.206 469.429 380.606 469.962 378.473C470.496 375.673 470.362 375.273 469.296 376.873C467.962 378.606 467.562 378.606 466.496 376.606C465.696 375.406 464.229 373.406 463.162 372.339C462.096 371.273 461.162 369.939 461.162 369.273C461.162 368.206 444.496 351.806 438.762 347.273C416.229 329.273 395.962 319.673 368.762 314.073C359.162 312.073 351.029 311.539 331.829 311.673C318.229 311.673 305.962 312.206 304.496 312.873ZM359.829 345.406C375.029 348.873 377.696 349.673 387.562 353.939C405.829 361.806 427.029 377.939 437.962 392.206C459.029 419.939 469.162 454.206 465.296 484.473C461.829 510.606 455.962 526.606 441.829 548.206C431.562 563.806 411.962 580.873 393.829 589.939C368.496 602.739 333.162 607.806 307.162 602.473C303.562 601.673 297.962 600.606 294.762 600.073C291.696 599.539 288.762 598.606 288.362 598.073C287.962 597.406 286.762 596.873 285.696 596.873C279.029 596.873 246.896 577.273 238.362 567.939C220.362 548.473 210.629 531.006 203.562 505.539C201.162 496.739 200.629 491.539 200.762 476.206C200.896 451.006 203.962 436.873 213.562 416.873C232.496 377.539 271.296 350.073 317.829 343.006C325.162 341.939 351.029 343.406 359.829 345.406Z" fill="black"/>
<path d="M434.5 669L480.5 633.5L571.5 689L661.5 817L596 854L434.5 669Z" fill="black" stroke="black"/>
<path d="M130.763 725.939C124.63 732.473 121.696 749.406 125.963 753.006C128.896 755.406 172.23 755.939 248.496 754.606L305.696 753.539L307.296 750.206C308.23 748.339 309.43 745.406 310.23 743.539C310.896 741.673 312.23 738.606 313.163 736.606C314.63 733.406 314.363 732.606 310.496 727.673L306.096 722.206H220.096H134.23L130.763 725.939Z" fill="black"/>
<path d="M142.497 797.673C137.03 798.073 131.163 798.873 129.563 799.673C125.43 801.939 123.297 807.806 124.363 814.606C125.697 822.339 128.363 825.939 134.097 827.406C138.363 828.473 153.697 829.273 164.23 829.006C199.163 827.939 282.763 827.539 289.697 828.606C300.363 829.939 304.63 828.606 309.297 822.073C311.963 818.339 311.963 817.539 310.497 812.873C308.897 807.939 305.563 803.406 300.897 799.673C299.03 798.206 284.763 797.806 225.563 797.539C185.297 797.406 147.963 797.406 142.497 797.673Z" fill="black"/>
</g>
<defs>
<clipPath id="clip0_232_7266">
<rect width="774" height="1019" fill="white"/>
</clipPath>
</defs>
</svg>
