<svg width="749" height="1060" viewBox="0 0 749 1060" fill="none" xmlns="http://www.w3.org/2000/svg">
<path d="M167.264 0.768423C147.802 3.83041 140.071 14.7471 147.136 28.7257C149.402 33.3852 172.197 56.5498 193.658 75.9868C215.787 96.0894 225.251 112.331 222.985 126.709C222.319 131.236 220.586 134.697 215.787 140.422C201.123 157.995 184.727 168.512 172.063 168.512C158.466 168.512 152.601 163.719 106.878 115.926C82.7503 90.7642 78.3513 87.3028 70.4864 87.3028C63.6879 87.3028 58.2225 92.7611 55.823 101.681C55.0232 105.142 53.6902 109.269 53.0237 111C51.2907 115.393 51.5573 154.134 53.2903 163.719C59.5555 196.602 74.3522 225.891 96.2139 248.124C117.409 269.691 139.004 282.338 167.131 289.527C178.595 292.456 202.59 294.985 219.119 294.985H236.449L260.31 319.348C273.374 332.661 284.971 344.909 286.171 346.64C288.037 349.569 287.771 350.101 274.307 363.947C241.648 397.362 128.34 512.786 111.41 529.826C101.279 540.077 91.2817 550.861 89.2821 553.79C72.3526 578.552 71.5528 608.24 87.2826 636.996C96.6138 654.303 111.144 664.82 133.139 670.545C141.937 672.808 167.264 672.409 175.796 669.879C190.459 665.486 199.391 660.027 210.188 648.711C215.787 642.854 226.318 632.203 233.649 625.281C249.113 610.237 273.24 586.274 293.503 565.505C323.896 534.486 352.156 508.659 364.953 500.139C371.885 495.479 383.482 486.027 390.547 479.104C397.612 472.314 404.144 466.723 405.077 466.723C406.01 466.723 418.408 478.438 432.538 492.816C460.265 521.173 459.732 520.241 459.732 535.817C459.732 547.4 463.997 569.499 468.663 582.546C476.928 605.577 498.523 633.135 517.852 645.383C530.649 653.504 541.846 658.297 563.175 665.086C565.441 665.885 574.506 666.418 583.57 666.418C597.434 666.418 601.433 665.885 610.631 662.956C622.761 658.962 627.294 655.235 629.826 646.448C632.492 637.662 629.027 631.937 610.631 614.497C602.099 606.376 594.901 599.853 594.368 599.853C592.635 599.853 564.375 567.369 562.775 563.508C560.775 558.982 560.509 550.195 562.242 546.867C562.908 545.669 564.375 542.474 565.574 539.944C570.506 528.628 577.572 524.102 590.502 523.969C600.9 523.969 621.962 539.279 632.759 554.988C638.624 563.375 653.421 578.818 663.952 587.472C673.15 594.927 682.081 596.525 689.68 591.865C694.212 589.069 698.211 582.013 701.277 571.895C703.543 563.908 703.543 528.362 701.144 519.309C697.811 506.795 696.078 502.135 689.813 489.488C677.282 464.593 657.553 445.555 629.16 431.31C612.097 422.79 591.302 417.997 561.175 415.335L549.978 414.403L513.586 377.925C489.458 353.962 477.061 340.516 477.061 338.785C477.061 335.057 598.767 213.377 604.366 211.513C633.692 201.528 643.023 197.268 649.689 190.478C654.088 186.085 670.351 161.856 670.351 159.592C670.351 159.326 672.083 156.53 674.216 153.468C679.682 145.347 689.013 129.771 689.013 128.706C689.013 128.041 690.213 126.576 691.679 125.245C693.145 123.913 694.345 122.316 694.345 121.517C694.345 120.852 696.211 117.656 698.344 114.328C700.61 111.133 702.343 108.204 702.343 107.805C702.343 107.405 703.41 105.409 704.876 103.545C713.274 91.563 714.741 84.7733 710.608 77.0518C707.675 71.5935 687.813 51.0915 675.683 40.9736C660.886 28.4594 656.487 28.8588 636.225 43.7693C618.229 56.8161 586.103 79.9807 577.971 85.7053C557.709 99.817 549.178 111.932 540.38 139.223C537.714 147.611 534.248 157.063 532.648 160.258C529.449 166.382 419.341 277.679 416.408 277.679C413.075 277.679 348.69 214.042 344.958 207.12C343.225 204.058 343.091 201.928 344.024 197.534C347.224 183.156 348.024 175.834 348.69 157.862C349.49 136.295 347.89 121.783 342.958 105.275C331.894 67.4664 301.901 32.4533 266.442 15.6789C244.714 5.42792 223.918 0.768403 196.458 0.102754C184.727 -0.163506 171.663 0.102774 167.264 0.768423ZM223.118 32.4533C245.913 36.7135 266.442 48.562 285.238 68.1321C301.767 85.5721 310.832 100.882 315.897 120.053C318.03 128.573 318.564 134.431 318.564 150.54C318.43 174.769 317.897 179.429 313.231 193.141C309.232 204.99 309.232 206.454 314.165 215.107C321.896 228.554 317.23 223.761 463.997 370.736C500.922 407.613 533.448 439.298 536.248 441.295C540.913 444.357 543.179 444.89 558.243 445.688C577.705 446.62 584.903 447.818 602.099 453.277C625.561 460.599 652.621 482.698 663.152 503.334C670.617 517.845 673.017 525.833 673.55 538.081C674.35 556.586 675.15 556.719 653.288 534.353C631.959 512.786 619.695 502.135 610.364 497.21C605.299 494.547 602.366 494.148 590.369 494.015C571.706 494.015 564.641 497.077 550.378 511.854C541.58 521.04 538.914 524.901 532.515 538.48C530.516 542.873 530.649 565.905 532.782 573.36C535.048 581.215 539.447 586.274 567.307 613.565C579.971 625.946 590.102 636.597 589.702 637.129C588.902 638.46 576.372 637.262 567.707 634.999C537.314 626.878 514.253 608.107 500.389 580.15C493.057 565.372 490.391 552.991 489.591 530.625C489.192 519.975 488.658 509.857 488.258 507.993C487.859 505.863 465.197 482.166 424.54 441.428C390.014 406.681 337.493 353.962 307.899 324.274C278.306 294.586 252.045 268.892 249.379 267.161C244.58 263.966 244.18 263.966 230.45 265.431C213.521 267.294 195.525 267.428 189.926 265.83C163.665 257.975 146.469 250.653 136.072 243.065C128.073 237.074 110.877 220.3 104.879 212.445C99.4132 205.389 88.0824 182.091 85.6829 173.172C82.8836 162.787 82.4837 159.459 81.6838 145.614L80.884 133.898L108.744 161.589C139.138 191.943 143.803 195.271 160.199 198.333C175.663 201.262 190.859 198.466 202.457 190.745C207.389 187.416 221.652 175.568 228.584 169.045C229.384 168.379 232.583 165.583 235.649 163.054C247.38 153.468 253.112 140.155 253.245 122.316C253.378 109.935 251.645 101.681 247.246 93.9593C245.913 91.4298 243.914 87.7022 242.847 85.8384C241.914 83.9746 230.317 71.061 217.12 57.2155C203.923 43.37 193.125 31.5214 193.125 30.9889C193.125 29.6576 213.921 30.5895 223.118 32.4533ZM666.485 73.5904C676.216 82.1107 678.215 84.5071 678.349 87.1697C678.349 88.2347 673.683 96.6219 667.951 105.808C657.953 121.65 650.888 133.632 643.423 147.211C631.959 167.713 629.826 170.509 623.028 174.503C619.829 176.367 613.297 178.097 606.365 179.162C600.1 179.961 592.635 181.825 589.702 183.156C585.97 184.754 564.241 205.655 519.718 250.254C484.126 285.799 454.666 314.955 454.133 314.955C453.733 314.955 450 311.493 445.868 307.233L438.536 299.645L500.122 238.006C567.041 171.175 564.641 174.103 567.707 155.199C570.373 138.824 574.639 128.573 582.237 121.118C586.636 116.858 602.766 104.61 625.161 88.6341C629.693 85.3059 638.624 78.9156 644.89 74.2561C651.022 69.7297 656.62 66.002 657.154 66.002C657.553 66.002 661.819 69.4634 666.485 73.5904ZM318.83 388.443C324.029 393.635 339.625 408.811 353.356 422.258L378.417 446.62L373.218 453.011C370.418 456.605 365.486 461.93 362.154 464.726C355.355 470.717 340.159 480.036 337.226 480.036C332.96 480.036 301.901 445.289 288.037 425.053C278.573 411.075 277.373 408.013 279.906 403.22C281.639 399.892 306.033 378.99 308.166 378.857C308.699 378.857 313.498 383.117 318.83 388.443ZM254.445 436.769C254.445 437.567 255.511 439.431 256.844 440.896C260.043 444.357 266.442 453.144 266.442 453.809C266.442 454.209 240.315 480.568 208.455 512.52C176.596 544.471 150.468 571.363 150.335 572.162C149.535 583.478 149.802 587.605 151.535 590.534C154.867 595.859 157.4 597.057 165.398 597.19H173.13L232.05 538.613L290.97 480.036L301.367 490.686C307.099 496.544 311.765 502.135 311.765 503.2C311.765 504.266 282.838 534.22 247.513 569.632C187.926 629.274 182.461 634.467 174.063 638.46C166.198 642.188 163.665 642.721 153.401 642.721C143.803 642.721 140.604 642.188 134.472 639.392C126.074 635.665 119.409 629.674 113.677 621.154C108.078 612.633 106.478 607.042 106.478 595.726C106.478 580.15 109.944 574.425 134.472 549.263C237.515 443.825 250.979 430.512 252.712 432.908C253.645 434.239 254.445 435.97 254.445 436.769Z" fill="black"/>
<path d="M317.764 618.624C294.569 619.956 284.039 624.482 275.507 637.129C268.175 647.913 267.242 652.173 266.443 678.4L265.776 703.029L153.135 703.827C77.2853 704.227 38.894 705.026 35.4282 705.958C26.4968 708.62 16.0992 714.345 11.9668 719.137C0.769328 731.785 -0.4304 739.639 0.102813 792.891C0.502722 833.762 0.636025 835.093 3.8353 842.682C6.90127 850.137 18.0987 863.45 21.298 863.45C21.9645 863.45 22.4977 895.268 22.4977 943.195C22.4977 994.982 23.031 1023.34 23.8308 1023.87C24.6306 1024.27 25.1638 1025.6 25.1638 1026.53C25.1638 1029.6 33.9618 1042.38 38.6274 1046.37C44.3595 1051.3 53.6907 1055.69 62.4887 1057.95C73.1529 1060.62 676.217 1060.75 688.347 1057.95C705.01 1054.36 717.007 1045.31 724.606 1030.93L728.338 1023.87L728.738 943.062L729.138 862.385L733.67 858.924C739.002 854.797 745.001 846.276 747.4 839.354C748.467 836.025 749 820.982 749 787.167C749 741.104 748.867 739.506 746.067 732.184C742.468 723.264 733.67 712.88 726.738 709.685C714.608 703.961 712.208 703.827 597.434 703.694H487.726V680.53C487.726 666.418 487.193 656.966 486.393 656.433C485.726 656.034 485.06 654.436 485.06 652.972C485.06 644.585 472.663 629.674 460.665 623.95C447.335 617.426 443.869 617.16 387.748 617.426C358.822 617.426 327.362 617.959 317.764 618.624ZM446.402 652.439C453.867 656.3 455.733 662.557 455.733 684.39V703.694L376.818 703.428L297.769 703.029L297.369 685.056C296.969 667.483 297.236 665.885 301.768 657.099C305.234 650.442 305.234 650.442 376.151 650.442C432.938 650.442 443.069 650.709 446.402 652.439ZM714.208 739.506L718.474 743.5L718.074 786.767C717.674 834.694 717.807 833.895 709.009 834.428C706.476 834.561 648.756 834.561 580.771 834.428L457.066 834.162V822.979C457.066 816.722 456.533 811.263 455.733 810.864C455.067 810.464 454.4 808.467 454.4 806.337C454.4 802.743 446.802 794.223 440.137 790.495C437.87 789.297 422.141 788.897 375.085 788.897H313.099L307.767 792.226C304.834 794.089 300.435 798.616 297.769 802.477C293.236 809.266 293.103 809.932 293.103 821.78V834.162H289.504C287.371 834.162 229.118 834.162 159.8 834.162C43.1597 834.162 33.6952 834.028 32.2289 831.898C30.096 829.103 29.6961 749.624 31.829 748.293C32.6288 747.893 33.162 746.429 33.162 745.098C33.162 743.766 34.7616 741.104 36.6279 739.107L40.2271 735.645H375.085H710.075L714.208 739.506ZM424.807 827.106C425.207 831.765 424.54 833.363 421.341 836.824C416.275 842.016 415.742 845.744 415.742 873.967C415.742 893.671 415.475 897.531 413.476 899.661C411.476 901.925 408.544 902.058 374.685 902.058C342.425 902.058 337.626 901.792 335.494 899.795C333.361 897.931 333.094 895.268 333.094 874.234C333.094 849.072 332.028 842.416 326.962 836.425C323.23 832.031 323.096 830.168 325.762 824.709L327.895 820.849L376.151 821.115L424.407 821.514L424.807 827.106ZM299.768 884.485C299.768 907.25 301.501 914.306 309.499 922.427C321.497 934.808 316.831 934.009 374.285 934.009H425.073L432.272 929.216C440.27 923.891 445.469 917.101 446.935 910.046C447.602 907.516 448.401 896.733 448.801 886.082L449.734 866.778L573.44 866.379L697.012 866.113V941.864V1017.75L693.812 1021.21C691.946 1023.21 687.414 1025.87 683.681 1027.33C677.15 1029.86 670.484 1029.86 377.751 1029.86C171.664 1029.86 76.3522 1029.33 71.8199 1028.4C63.955 1026.67 57.5565 1022.67 54.3572 1017.22C52.2244 1013.49 51.9577 1007.23 51.9577 940.532C51.8244 900.593 52.2243 867.444 52.7576 867.045C53.1575 866.512 109.011 866.113 176.729 866.113H299.768V884.485Z" fill="black"/>
</svg>
