<?xml version="1.0" encoding="UTF-8"?>
<svg id="Ebene_1" xmlns="http://www.w3.org/2000/svg" version="1.1" viewBox="0 0 176.6 54.6">
  <!-- Generator: Adobe Illustrator 30.3.0, SVG Export Plug-In . SVG Version: 2.1.3 Build 182)  -->
  <defs>
    <style>
      .st0 {
        fill: #1a1a18;
      }
    </style>
  </defs>
  <path class="st0" d="M5.4,29.8c-2-5.3-2.7-5.4-5.4-5.4v-1.8c2.3,0,4.7.1,7,.1s4.8-.1,7.3-.1v1.8c-3.2,0-4,.2-4,1.9s1.1,3.3,2.2,6.5l4.9,13.3,5.8-14.4c.8-2,1.3-3.8,1.4-5.4,0-1.5-.8-1.6-3.7-1.9v-1.8c1.7,0,3.4.1,5,.1s4.2-.1,6.4-.1v1.8c-3.3,0-4.3,1.9-5.6,5l-10.1,25.2h-1.8L5.4,29.8ZM32.9,51.7h1.3c2,0,3.4,0,3.4-2.3v-19c0-3.1-1.1-3.5-3.6-4.9v-1.1c3.3-1,7.2-2.3,7.5-2.5.5-.3.9-.4,1.3-.4s.5.4.5,1v26.9c0,2.3,1.5,2.3,3.5,2.3h1.2v1.8c-2.4,0-4.8-.1-7.4-.1s-5,0-7.6.1v-1.8ZM35.8,8.6c0-2.5,2.2-4.7,4.6-4.7s4.6,2.2,4.6,4.7-2.1,4.6-4.6,4.6-4.6-2-4.6-4.6ZM76.9,49.7c0,1.3.8,1.3,2,1.3s1.9,0,2.8,0v1.5c-3,.3-8.8,1.8-10.1,2.2l-.4-.2v-5.7c-4.2,3.4-7.4,5.9-12.4,5.9s-7.7-2.5-7.7-8.3v-17.9c0-1.8-.3-3.6-4.2-3.9v-1.3c2.5,0,8.1-.5,9-.5s.8.5.8,2v18.1c0,2.1,0,8.1,6.1,8.1s5.5-1.8,8.5-4.3v-18.9c0-1.4-3.4-2.2-5.9-2.9v-1.3c6.3-.4,10.2-1,10.9-1s.6.5.6,1.3v25.9ZM84.8,29.2c0-2.5,2.2-4.7,4.6-4.7s4.6,2.2,4.6,4.7-2.1,4.6-4.6,4.6-4.6-2-4.6-4.6ZM84.8,50.1c0-2.5,2.2-4.7,4.6-4.7s4.6,2.2,4.6,4.7-2.1,4.6-4.6,4.6-4.6-2-4.6-4.6ZM97.2,51.7h1.3c2,0,3.4,0,3.4-2.3V10.4c0-4.6-1.1-4.7-3.7-5.5v-1.1c2.8-.9,5.7-2.2,7.2-3,.8-.4,1.3-.8,1.5-.8.4,0,.6.4.6,1v48.4c0,2.3,1.5,2.3,3.5,2.3h1.2v1.8c-2.4,0-4.8-.1-7.4-.1s-5,0-7.6.1v-1.8ZM143.3,50.8c-2,1.8-4.1,3.8-6.9,3.8s-4.2-2.7-4.3-5.2c-3.3,3-6.4,5.2-10.8,5.2s-7.6-3.1-7.6-6.8c.3-5.6,3.2-6.7,18.3-11.8v-4.6c0-3.9-2.3-6-6.8-6s-5.2,1.8-5.3,4.9c0,2-2.2,2.9-3.9,2.9s-1.3-.9-1.3-1.4c0-3.7,3.2-5.5,8.1-8s3.6-2.2,6.3-2.2,8.6,2,8.6,5.9v19.4c0,2.9,1,4,2.5,4s2-.4,2.6-1.2l.6,1.2ZM131.9,38c-3.6,1.4-12.7,3-12.7,8.3s2.2,5,5,5,5.4-2,7.7-4.1v-9.3ZM153.1,26.6c2.8-2.4,6.6-5,10.4-5,8.1,0,13,7.1,13,14.7s-6.7,18.4-16.8,18.4-7.9-1.7-9.7-2.5l-2.1,1.6-1.5-.8c.6-4.1,1-8.2,1-12.5V10.4c0-4.6-1.1-4.7-3.7-5.5v-1.1c2.8-.9,5.7-2.2,7.2-3,.8-.4,1.3-.8,1.5-.8.4,0,.6.4.6,1v25.6ZM153.1,45.6c0,2.7,2.5,7.2,7.2,7.2,7.5,0,10.7-7.4,10.7-13.6s-5.7-13.9-11.2-13.9-4.8,1.7-6.7,3.3v17Z"/>
</svg>